<svg width="24" height="24" viewBox="0 0 24 24" fill="none" xmlns="http://www.w3.org/2000/svg">
<path d="M2.04004 18.14C2.04004 15.2 2.04004 12.27 2.04004 9.32999C2.10004 9.32999 2.17004 9.32999 2.23004 9.32999C8.74004 9.32999 15.26 9.32999 21.77 9.32999C21.94 9.32999 22 9.35999 22 9.54999C22 12.34 22 15.12 22 17.91C22 18.0767 21.9134 18.16 21.74 18.16C15.25 18.16 8.76004 18.16 2.27004 18.16C2.19004 18.16 2.11004 18.16 2.04004 18.16V18.14ZM12.44 10.69C12.44 10.69 12.42 10.68 12.41 10.67C11.5 11.84 10.59 13 9.67004 14.17C9.76004 14.23 9.83004 14.21 9.90004 14.21C10.46 14.21 11.02 14.21 11.58 14.21C11.7 14.21 11.75 14.23 11.73 14.37C11.68 14.7 11.65 15.03 11.61 15.36C11.56 15.83 11.5 16.31 11.45 16.78C11.46 16.78 11.47 16.79 11.48 16.8C12.44 15.61 13.41 14.42 14.38 13.22C14.3 13.17 14.24 13.19 14.17 13.19C13.6 13.19 13.03 13.19 12.45 13.19C12.33 13.19 12.29 13.16 12.3 13.04C12.33 12.78 12.34 12.51 12.35 12.24C12.38 11.72 12.41 11.21 12.44 10.69ZM16.9 11.92C16.7 11.92 16.53 11.92 16.36 11.92C16.24 11.92 16.13 11.96 16.06 12.07C15.91 12.29 16.06 12.57 16.34 12.58C16.66 12.59 16.99 12.59 17.31 12.58C17.47 12.58 17.51 12.63 17.5 12.78C17.5 13.08 17.5 13.38 17.5 13.68C17.5 13.93 17.62 14.08 17.82 14.09C18.02 14.09 18.16 13.94 18.16 13.68C18.16 13.37 18.16 13.06 18.16 12.75C18.16 12.63 18.19 12.59 18.31 12.59C18.62 12.59 18.93 12.59 19.24 12.59C19.5 12.59 19.65 12.46 19.65 12.25C19.65 12.05 19.5 11.93 19.25 11.93C18.95 11.93 18.65 11.93 18.35 11.93C18.2 11.93 18.15 11.9 18.15 11.74C18.16 11.42 18.15 11.09 18.15 10.77C18.15 10.57 18 10.44 17.82 10.44C17.63 10.44 17.5 10.57 17.5 10.78C17.5 10.95 17.5 11.13 17.5 11.31C17.5 11.51 17.58 11.77 17.47 11.89C17.34 12.03 17.08 11.91 16.9 11.94V11.92ZM6.22004 12.12C5.73004 12.12 5.25004 12.12 4.76004 12.12C4.52004 12.12 4.38004 12.25 4.38004 12.45C4.38004 12.64 4.51004 12.78 4.73004 12.78C5.71004 12.78 6.69004 12.78 7.67004 12.78C7.78004 12.78 7.89004 12.74 7.96004 12.65C8.03004 12.55 8.05004 12.44 8.00004 12.32C7.94004 12.18 7.82004 12.12 7.67004 12.12C7.18004 12.12 6.70004 12.12 6.21004 12.12H6.22004Z" fill="#FB4847"/>
<path d="M2.04004 18.8C2.13004 18.8 2.22004 18.81 2.31004 18.81C8.78004 18.81 15.25 18.81 21.72 18.81C21.9067 18.81 22 18.9033 22 19.09C22 19.36 22 19.64 22 19.91C22 20.25 21.8 20.44 21.47 20.45C21.42 20.45 21.38 20.45 21.33 20.45C15.12 20.45 8.91004 20.45 2.70004 20.45C2.39004 20.45 2.17004 20.36 2.04004 20.08C2.04004 19.65 2.04004 19.22 2.04004 18.79V18.8Z" fill="#FB4847"/>
<path d="M2.04004 7.37999C2.18004 7.10999 2.40004 7.01999 2.71004 7.01999C8.92004 7.01999 15.13 7.01999 21.34 7.01999C21.84 7.01999 22 7.17999 22 7.67999C22 7.94999 22 8.22999 22 8.49999C22 8.60999 21.97 8.65999 21.86 8.64999C21.8 8.64999 21.74 8.64999 21.68 8.64999C15.22 8.64999 8.76004 8.64999 2.31004 8.64999C2.22004 8.64999 2.13004 8.64999 2.04004 8.65999C2.04004 8.22999 2.04004 7.79999 2.04004 7.36999V7.37999Z" fill="#FB4847"/>
<path d="M6.29988 4.32C6.29988 4.52 6.29988 4.72 6.29988 4.92C6.29988 5.01 6.26988 5.04 6.17988 5.04C5.77988 5.04 5.38988 5.04 4.98988 5.04C4.90988 5.04 4.87988 5.01 4.87988 4.93C4.87988 4.52 4.87988 4.11 4.87988 3.7C4.87988 3.62 4.90988 3.59 4.98988 3.59C5.38988 3.59 5.77988 3.59 6.17988 3.59C6.26988 3.59 6.30988 3.62 6.29988 3.72C6.29988 3.92 6.29988 4.12 6.29988 4.32Z" fill="#FB4847"/>
<path d="M19.16 4.30999C19.16 4.49999 19.16 4.69999 19.16 4.88999C19.16 4.99999 19.13 5.03999 19.02 5.03999C18.64 5.03999 18.25 5.03999 17.87 5.03999C17.77 5.03999 17.73 5.01999 17.73 4.90999C17.73 4.50999 17.73 4.11999 17.73 3.71999C17.73 3.59999 17.78 3.57999 17.88 3.57999C18.26 3.57999 18.63 3.57999 19.01 3.57999C19.12 3.57999 19.16 3.60999 19.16 3.71999C19.16 3.90999 19.16 4.10999 19.16 4.29999V4.30999Z" fill="#FB4847"/>
<path d="M5.58004 6.35999C5.23004 6.35999 4.88004 6.35999 4.53004 6.35999C4.42004 6.35999 4.39004 6.32999 4.38004 6.21999C4.36004 5.70999 4.36004 5.70999 4.88004 5.70999C5.46004 5.70999 6.04004 5.70999 6.61004 5.70999C6.74004 5.70999 6.79004 5.74999 6.79004 5.87999C6.79004 6.35999 6.79004 6.35999 6.32004 6.35999C6.07004 6.35999 5.83004 6.35999 5.58004 6.35999Z" fill="#FB4847"/>
<path d="M18.46 5.70999C18.8 5.70999 19.15 5.70999 19.49 5.70999C19.62 5.70999 19.65 5.74999 19.65 5.87999C19.65 6.36999 19.65 6.36999 19.17 6.36999C18.59 6.36999 18.01 6.36999 17.44 6.36999C17.3 6.36999 17.25 6.34999 17.25 6.18999C17.25 5.70999 17.25 5.70999 17.72 5.70999C17.97 5.70999 18.21 5.70999 18.46 5.70999Z" fill="#FB4847"/>
</svg>
