<svg width="100" height="100" viewBox="0 0 100 100" fill="none" xmlns="http://www.w3.org/2000/svg">
<g clip-path="url(#clip0_2018_20)">
<rect width="100" height="100" fill="white"/>
<rect width="100" height="100" fill="#040F2B"/>
<path d="M37.2065 70.0011C41.4648 66.9947 45.8348 63.9021 50.8146 60.3892C50.6113 56.9625 50.3369 52.3613 50.0727 47.8463C37.2472 46.4886 31.8202 56.8548 37.2167 69.9903L37.2065 70.0011ZM50.3674 44.7214C50.9365 40.5728 51.4345 36.9521 51.9935 32.9221C46.4039 31.726 41.3631 32.2971 37.5419 36.672C33.9036 40.8422 33.1109 46.1761 33.9748 52.9324C38.2127 45.9283 43.975 44.8938 50.3674 44.7106V44.7214ZM44.0258 82.0483C47.5015 79.5699 50.7231 77.2531 54.1277 74.8178C53.2537 71.6821 52.3187 68.3632 51.2922 64.6671C46.9934 65.0874 43.1416 66.0033 41.3327 70.6907C39.5542 75.3027 41.2209 79.0526 44.0258 82.0483ZM30.1027 52.4906C31.5357 38.6224 33.365 34.269 26.9014 31.7367C21.2712 41.7365 21.8505 45.9175 30.1027 52.4906ZM23.4766 50.4864C21.6777 62.5982 24.94 68.6972 34.1577 70.7015C31.8202 63.2879 30.9462 55.2384 23.4766 50.4864ZM36.7695 32.7389C40.2249 31.7367 43.5685 29.7109 46.6783 30.0773C52.898 30.81 54.8187 27.4372 55.52 21.877C46.0584 20.1637 38.6293 24.5278 36.7695 32.7496V32.7389ZM61.6482 86.6171C59.9408 84.4512 58.8839 83.2444 57.9489 81.9297C55.2253 78.1152 53.0301 77.6626 49.7576 80.6798C48.8227 81.5418 47.8165 83.2659 48.0096 84.3543C48.1722 85.2917 49.9507 86.4232 51.089 86.5202C54.2699 86.8111 57.5017 86.6279 61.638 86.6279L61.6482 86.6171ZM27.6738 71.8868C32.5723 81.7035 37.5419 86.0999 43.2433 85.8413C38.9241 80.2595 35.987 73.1368 27.6738 71.8868ZM43.0705 20.8533C48.3755 16.737 56.3228 22.0279 61.4246 14.6142C54.0565 14.2694 47.3084 13.1056 43.0705 20.8533ZM33.5784 33.7626C34.5947 30.185 35.6211 27.2648 36.1496 24.2369C36.3224 23.2778 35.3874 21.5537 34.5439 21.1119C33.9036 20.7779 32.3182 21.6399 31.6576 22.4481C30.2755 24.1507 29.2287 26.1765 28.0092 28.1161C29.7775 29.9049 31.3121 31.4566 33.5886 33.7518L33.5784 33.7626ZM44.0665 15.1745C43.8124 14.7866 43.5685 14.3987 43.3144 14C40.7737 15.2069 38.233 16.4137 34.9707 17.9654C36.5764 19.668 37.5114 20.6486 38.5684 21.7692C40.5908 19.3447 42.3286 17.2542 44.0665 15.1745Z" fill="#FB4847"/>
<path d="M37.2028 70.0009C31.8063 56.8546 37.2435 46.4992 50.0588 47.8569C50.323 52.3719 50.5974 56.9731 50.8007 60.3998C45.8209 63.9126 41.4509 67.0052 37.1926 70.0117L37.2028 70.0009Z" fill="#FB4847"/>
<path d="M50.3646 44.7216C43.9621 44.894 38.2099 45.9392 33.972 52.9434C33.1081 46.1871 33.8907 40.8531 37.5391 36.6829C41.3604 32.308 46.4011 31.7369 51.9907 32.933C51.4419 36.9523 50.9439 40.5837 50.3646 44.7324V44.7216Z" fill="#FB4847"/>
<path d="M44.0224 82.0483C41.2174 79.0526 39.5507 75.3027 41.3292 70.6907C43.1281 66.0141 46.9798 65.0874 51.2888 64.6671C52.3254 68.3524 53.2502 71.6821 54.1242 74.8178C50.7197 77.2531 47.4879 79.5591 44.0224 82.0483Z" fill="#FB4847"/>
<path d="M30.0998 52.4906C21.8476 45.9175 21.2683 41.7365 26.8985 31.7367C33.3723 34.2797 31.5328 38.6331 30.0998 52.4906Z" fill="#FB4847"/>
<path d="M23.4746 50.4862C30.9443 55.2383 31.8183 63.2769 34.1557 70.7013C24.938 68.7078 21.6758 62.6088 23.4746 50.4862Z" fill="#FB4847"/>
<path d="M36.7666 32.7388C38.6264 24.517 46.0554 20.1636 55.517 21.8662C54.8158 27.4264 52.895 30.7992 46.6754 30.0664C43.5655 29.7001 40.222 31.7259 36.7666 32.728V32.7388Z" fill="#FB4847"/>
<path d="M27.6729 71.8867C35.9861 73.1367 40.0004 80.2594 44.3196 85.8412C38.6182 86.0998 32.5612 81.7033 27.6729 71.8867Z" fill="#FB4847"/>
<path d="M43.0674 20.8532C47.3053 13.1055 56.6449 14.2801 64.013 14.6249C58.9011 22.0386 48.3724 16.7477 43.0674 20.864V20.8532Z" fill="#FB4847"/>
<path d="M33.5755 33.7625C31.3092 31.4673 29.7644 29.9048 27.9961 28.1268C29.2156 26.1872 30.2624 24.1614 31.6446 22.4588C32.3051 21.6506 33.8905 20.7886 34.5308 21.1226C35.3743 21.5644 36.3093 23.2885 36.1365 24.2476C35.5979 27.2755 34.5714 30.1957 33.5653 33.7733L33.5755 33.7625Z" fill="#FB4847"/>
<path d="M44.0635 15.1745C42.3257 17.2542 40.5878 19.3447 38.5654 21.7693C37.5085 20.6594 36.5735 19.668 34.9678 17.9654C38.23 16.4137 40.7708 15.2069 43.3115 14C43.5655 14.3879 43.8094 14.7758 44.0635 15.1745Z" fill="#FB4847"/>
<path d="M77.4993 63.3525C76.3915 75.529 72.5093 84.3974 65.6087 84.3974C56.8687 84.3974 52.7324 69.7533 52.7324 51.1868C52.7324 32.6204 57.0008 17.2543 65.8933 17.2543C73.2309 17.2543 76.798 27.4588 77.4688 38.3638H71.5032C70.9239 33.3316 69.4503 28.3209 65.7002 28.3209C60.7814 28.3209 58.8809 38.7948 58.8809 50.6696C58.8809 61.7039 60.5273 73.3308 65.8526 73.3308C69.745 73.3308 70.9747 67.1563 71.493 63.3525H77.4891H77.4993Z" fill="#FB4847"/>
</g>
<defs>
<clipPath id="clip0_2018_20">
<rect width="100" height="100" fill="white"/>
</clipPath>
</defs>
</svg>
