<svg width="100" height="100" viewBox="0 0 100 100" fill="none" xmlns="http://www.w3.org/2000/svg">
<g clip-path="url(#clip0_2018_20)">
<rect width="100" height="100" fill="white"/>
<rect width="100" height="100" fill="#040F2B"/>
<path d="M41.7336 62.4281C44.3515 60.5798 47.038 58.6786 50.0995 56.5189C49.9745 54.4123 49.8058 51.5836 49.6434 48.8079C41.7586 47.9732 38.4222 54.3461 41.7399 62.4215L41.7336 62.4281ZM49.8246 46.8868C50.1745 44.3363 50.4806 42.1104 50.8242 39.6328C47.3879 38.8975 44.289 39.2486 41.9398 41.9382C39.7031 44.5019 39.2157 47.7811 39.7468 51.9347C42.3521 47.6287 45.8947 46.9927 49.8246 46.8801V46.8868ZM45.9259 69.8344C48.0627 68.3107 50.0433 66.8864 52.1363 65.3893C51.599 63.4615 51.0242 61.4211 50.3931 59.1489C47.7503 59.4073 45.3824 59.9704 44.2702 62.8521C43.1769 65.6874 44.2015 67.9928 45.9259 69.8344ZM37.3664 51.6631C38.2473 43.1372 39.3719 40.4609 35.3983 38.9041C31.937 45.0517 32.2931 47.6221 37.3664 51.6631ZM33.2927 50.4309C32.1869 57.877 34.1924 61.6265 39.8592 62.8587C38.4222 58.301 37.8849 53.3524 33.2927 50.4309ZM41.465 39.5202C43.5892 38.9041 45.6448 37.6587 47.5566 37.8839C51.3803 38.3344 52.5611 36.2609 52.9923 32.8426C47.1755 31.7893 42.6083 34.4722 41.465 39.5268V39.5202ZM56.7597 72.6432C55.7101 71.3117 55.0603 70.5697 54.4855 69.7615C52.8111 67.4164 51.4615 67.1382 49.4497 68.9931C48.8749 69.523 48.2564 70.583 48.3751 71.2521C48.475 71.8284 49.5684 72.524 50.2682 72.5836C52.2238 72.7625 54.2106 72.6499 56.7535 72.6499L56.7597 72.6432ZM35.8731 63.5874C38.8846 69.6224 41.9398 72.3252 45.4448 72.1663C42.7895 68.7347 40.9839 64.3558 35.8731 63.5874ZM45.3386 32.2133C48.6 29.6827 53.4858 32.9353 56.6223 28.3776C52.0926 28.1656 47.944 27.4502 45.3386 32.2133ZM39.5031 40.1495C40.1279 37.9502 40.7589 36.1549 41.0838 34.2934C41.19 33.7038 40.6152 32.6438 40.0967 32.3722C39.7031 32.1669 38.7284 32.6968 38.3223 33.1937C37.4726 34.2404 36.829 35.4858 36.0793 36.6782C37.1664 37.7779 38.1098 38.7319 39.5094 40.1429L39.5031 40.1495ZM45.9509 28.7221C45.7947 28.4836 45.6448 28.2451 45.4886 28C43.9266 28.742 42.3646 29.4839 40.3591 30.4379C41.3462 31.4845 41.921 32.0874 42.5708 32.7763C43.8141 31.2858 44.8825 30.0006 45.9509 28.7221Z" fill="#FB4847"/>
<path d="M41.7314 62.428C38.4138 54.3459 41.7564 47.9797 49.635 48.8144C49.7974 51.5901 49.9661 54.4188 50.091 56.5254C47.0296 58.6851 44.343 60.5863 41.7252 62.4346L41.7314 62.428Z" fill="#FB4847"/>
<path d="M49.8237 46.8869C45.8876 46.9929 42.3513 47.6354 39.7459 51.9414C39.2149 47.7878 39.696 44.5086 41.9389 41.9449C44.2881 39.2553 47.3871 38.9042 50.8234 39.6395C50.486 42.1105 50.1799 44.343 49.8237 46.8935V46.8869Z" fill="#FB4847"/>
<path d="M45.9246 69.8344C44.2002 67.9928 43.1756 65.6874 44.2689 62.8521C45.3748 59.977 47.7428 59.4073 50.3918 59.1489C51.0291 61.4145 51.5977 63.4615 52.135 65.3893C50.042 66.8865 48.0551 68.3041 45.9246 69.8344Z" fill="#FB4847"/>
<path d="M37.3652 51.663C32.292 47.622 31.9358 45.0517 35.3971 38.9041C39.377 40.4675 38.2462 43.1438 37.3652 51.663Z" fill="#FB4847"/>
<path d="M33.2918 50.4308C37.8839 53.3522 38.4213 58.2942 39.8583 62.8586C34.1915 61.633 32.1859 57.8835 33.2918 50.4308Z" fill="#FB4847"/>
<path d="M41.4639 39.5201C42.6072 34.4656 47.1744 31.7892 52.9912 32.8359C52.5601 36.2542 51.3792 38.3277 47.5555 37.8772C45.6437 37.652 43.5881 38.8974 41.4639 39.5135V39.5201Z" fill="#FB4847"/>
<path d="M35.873 63.5873C40.9838 64.3557 43.4517 68.7346 46.107 72.1661C42.602 72.3251 38.8783 69.6223 35.873 63.5873Z" fill="#FB4847"/>
<path d="M45.3369 32.2132C47.9423 27.4501 53.6841 28.1722 58.2138 28.3842C55.0711 32.9419 48.5983 29.6892 45.3369 32.2199V32.2132Z" fill="#FB4847"/>
<path d="M39.5014 40.1495C38.1081 38.7385 37.1584 37.7779 36.0713 36.6849C36.821 35.4924 37.4646 34.247 38.3143 33.2003C38.7204 32.7035 39.695 32.1735 40.0887 32.3789C40.6072 32.6505 41.182 33.7104 41.0758 34.3C40.7447 36.1615 40.1137 37.9568 39.4951 40.1562L39.5014 40.1495Z" fill="#FB4847"/>
<path d="M45.9493 28.7221C44.8809 30.0006 43.8125 31.2858 42.5692 32.7763C41.9194 32.094 41.3446 31.4845 40.3574 30.4379C42.363 29.4839 43.925 28.742 45.4869 28C45.6431 28.2385 45.7931 28.477 45.9493 28.7221Z" fill="#FB4847"/>
<path d="M66.5053 58.3407C65.8243 65.8265 63.4376 71.2785 59.1953 71.2785C53.8222 71.2785 51.2793 62.2757 51.2793 50.8615C51.2793 39.4473 53.9034 30.0006 59.3703 30.0006C63.8812 30.0006 66.0742 36.2741 66.4866 42.9782H62.8191C62.463 39.8845 61.557 36.8041 59.2516 36.8041C56.2276 36.8041 55.0593 43.2432 55.0593 50.5435C55.0593 57.3271 56.0714 64.4751 59.3453 64.4751C61.7382 64.4751 62.4942 60.6792 62.8128 58.3407H66.4991H66.5053Z" fill="#FB4847"/>
</g>
<defs>
<clipPath id="clip0_2018_20">
<rect width="100" height="100" fill="white"/>
</clipPath>
</defs>
</svg>
