<?xml version="1.0" encoding="UTF-8"?>
<svg id="Layer_1" data-name="Layer 1" xmlns="http://www.w3.org/2000/svg" xmlns:xlink="http://www.w3.org/1999/xlink" viewBox="0 0 48 48">
  <defs>
    <style>
      .cls-1 {
        fill: #fb4847;
      }

      .cls-2 {
        clip-path: url(#clippath);
      }

      .cls-3 {
        fill: none;
      }
    </style>
    <clipPath id="clippath">
      <rect class="cls-3" x="9" y="4" width="30" height="40"/>
    </clipPath>
  </defs>
  <g class="cls-2">
    <g>
      <path class="cls-1" d="M16.82,34.82c2.34-1.65,4.75-3.36,7.49-5.29-.11-1.89-.26-4.42-.41-6.9-7.06-.75-10.05,4.96-7.08,12.19h0Zm7.24-13.91c.31-2.28,.59-4.28,.89-6.49-3.08-.66-5.85-.34-7.95,2.06-2,2.3-2.44,5.23-1.96,8.95,2.33-3.86,5.5-4.42,9.02-4.53h0Zm-3.49,20.55c1.91-1.36,3.69-2.64,5.56-3.98-.48-1.73-1-3.55-1.56-5.59-2.37,.23-4.49,.74-5.48,3.32-.98,2.54-.06,4.6,1.48,6.25Zm-7.66-16.27c.79-7.63,1.8-10.03-1.76-11.42-3.1,5.5-2.78,7.81,1.76,11.42Zm-3.65-1.1c-.99,6.67,.81,10.02,5.88,11.13-1.29-4.08-1.77-8.51-5.88-11.13Zm7.32-9.77c1.9-.55,3.74-1.67,5.45-1.46,3.42,.4,4.48-1.45,4.87-4.51-5.21-.94-9.3,1.46-10.32,5.98h0Zm13.69,29.65c-.94-1.19-1.52-1.86-2.04-2.58-1.5-2.1-2.71-2.35-4.51-.69-.51,.47-1.07,1.42-.96,2.02,.09,.52,1.07,1.14,1.69,1.19,1.75,.16,3.53,.06,5.81,.06h0Zm-18.7-8.11c2.7,5.4,5.43,7.82,8.57,7.68-2.38-3.07-3.99-6.99-8.57-7.68ZM20.05,7.77c2.92-2.27,7.29,.65,10.1-3.43-4.06-.19-7.77-.83-10.1,3.43Zm-5.22,7.11c.56-1.97,1.12-3.58,1.42-5.24,.1-.53-.42-1.48-.88-1.72-.35-.18-1.23,.29-1.59,.74-.76,.94-1.34,2.05-2.01,3.12,.97,.98,1.82,1.84,3.07,3.1h0Zm5.77-10.23c-.14-.21-.27-.43-.41-.65-1.4,.66-2.8,1.33-4.59,2.18,.88,.94,1.4,1.48,1.98,2.09,1.11-1.33,2.07-2.49,3.03-3.63Z"/>
      <path class="cls-1" d="M16.82,34.82c-2.97-7.24,.02-12.94,7.08-12.19,.15,2.49,.3,5.02,.41,6.9-2.74,1.93-5.15,3.64-7.49,5.29h0Z"/>
      <path class="cls-1" d="M24.06,20.91c-3.52,.09-6.69,.67-9.02,4.53-.48-3.72-.04-6.65,1.96-8.95,2.1-2.41,4.88-2.72,7.95-2.06-.3,2.21-.58,4.21-.89,6.49h0Z"/>
      <path class="cls-1" d="M20.57,41.46c-1.54-1.65-2.46-3.71-1.48-6.25,.99-2.57,3.11-3.08,5.48-3.32,.57,2.03,1.08,3.86,1.56,5.59-1.87,1.34-3.65,2.61-5.56,3.98Z"/>
      <path class="cls-1" d="M12.91,25.19c-4.54-3.62-4.86-5.92-1.76-11.42,3.56,1.4,2.55,3.8,1.76,11.42Z"/>
      <path class="cls-1" d="M9.26,24.08c4.11,2.62,4.59,7.04,5.88,11.13-5.07-1.1-6.87-4.45-5.88-11.13Z"/>
      <path class="cls-1" d="M16.58,14.31c1.02-4.53,5.11-6.92,10.32-5.98-.39,3.06-1.44,4.92-4.87,4.51-1.71-.2-3.55,.91-5.45,1.47h0Z"/>
      <path class="cls-1" d="M11.57,35.86c4.58,.69,6.79,4.61,9.16,7.68-3.14,.14-6.47-2.28-9.16-7.68Z"/>
      <path class="cls-1" d="M20.05,7.77c2.33-4.26,7.47-3.62,11.53-3.43-2.81,4.08-8.61,1.17-11.53,3.43h0Z"/>
      <path class="cls-1" d="M14.82,14.88c-1.25-1.26-2.1-2.12-3.07-3.1,.67-1.07,1.25-2.18,2.01-3.12,.36-.44,1.24-.92,1.59-.74,.46,.24,.98,1.19,.88,1.72-.3,1.67-.86,3.27-1.42,5.24h0Z"/>
      <path class="cls-1" d="M20.6,4.65c-.96,1.14-1.91,2.3-3.03,3.63-.58-.61-1.1-1.16-1.98-2.09,1.8-.85,3.19-1.52,4.59-2.18,.14,.21,.27,.43,.41,.65Z"/>
      <path class="cls-1" d="M39,31.16c-.61,6.7-2.75,11.58-6.54,11.58-4.81,0-7.09-8.06-7.09-18.28s2.35-18.68,7.24-18.68c4.04,0,6,5.62,6.37,11.62h-3.28c-.32-2.77-1.13-5.53-3.19-5.53-2.71,0-3.75,5.77-3.75,12.3,0,6.07,.91,12.47,3.84,12.47,2.14,0,2.82-3.4,3.1-5.49h3.31Z"/>
    </g>
  </g>
</svg>